<svg width="121" height="33" fill="none" xmlns="http://www.w3.org/2000/svg" class="w-32 h-10 relative transition hover:opacity-90 text-white dark:text-primary-500 duration-200"><path d="M120.198 22.954c-.053.268-.08.562-.187.83-.401 1.337-1.284 2.246-2.541 2.808-.722.348-1.498.508-2.3.588-1.765.16-3.397-.24-5.002-.909-.427-.187-.855-.401-1.31-.588.428-.883.856-1.739 1.284-2.595.053.027.133.08.187.107.99.562 2.006 1.043 3.103 1.284.561.134 1.123.214 1.685.107.641-.134 1.15-.481 1.31-1.15.187-.642-.08-1.23-.642-1.578-.454-.268-.989-.401-1.498-.508-.722-.16-1.444-.188-2.139-.455-.749-.267-1.445-.642-1.926-1.284-.348-.455-.535-.99-.615-1.551-.214-1.204 0-2.327.722-3.343.615-.83 1.471-1.338 2.434-1.632.829-.24 1.658-.294 2.541-.268.749.027 1.498.134 2.22.375.722.268 1.417.562 2.139.856-.401.829-.775 1.605-1.176 2.407-.295-.134-.562-.267-.856-.401-.856-.375-1.712-.615-2.648-.562-.428.027-.856.134-1.204.428-.508.428-.588 1.444.161 1.872.454.241.963.375 1.471.508.775.215 1.578.402 2.327.67.963.32 1.711.962 2.113 1.925.16.32.187.695.294 1.07 0 .053.027.08.027.134.026.24.026.535.026.855Z" fill="#2E2E2E"></path><path d="M52.236 26.351c.08.91.027 1.766.054 2.648v2.595c0 .08-.027.133-.107.16-1.07.294-2.167.562-3.236.856h-.054V16.375c0-.642-.027-1.31-.053-1.953 0-.267-.054-.508-.108-.748-.026-.134-.026-.188.134-.214.963-.16 1.9-.321 2.862-.509.08-.026.107.027.134.107l.24 1.124s.027 0 .054-.027c.508-.588 1.204-.856 1.926-1.043a4.613 4.613 0 0 1 1.712-.16c1.765.187 3.102 1.07 3.958 2.62.428.75.642 1.552.776 2.408.133.936.133 1.899.08 2.835-.054.883-.16 1.765-.481 2.594-.616 1.525-1.605 2.728-3.183 3.37-.455.188-.91.268-1.418.294-1.016.08-1.98-.08-2.889-.508-.133-.08-.24-.16-.4-.214Zm.08-6.205v2.916c0 .454 0 .454.375.695.615.374 1.257.615 2.006.508.802-.107 1.337-.535 1.631-1.257.214-.508.295-1.016.348-1.551.027-.562.08-1.123.08-1.685 0-.482-.053-.963-.08-1.471a5.153 5.153 0 0 0-.294-1.418c-.187-.535-.562-.883-1.097-1.016a2.925 2.925 0 0 0-.962-.054c-.75.08-1.365.402-1.9.91-.08.08-.107.16-.107.294v3.13Z" fill="#595959"></path><path d="M85.374 23.169c.455.695.91 1.39 1.391 2.14-.32.213-.615.454-.936.641-.99.642-2.06 1.043-3.236 1.15-1.659.188-3.237-.053-4.654-1.016-1.043-.695-1.739-1.658-2.193-2.835-.321-.83-.482-1.712-.535-2.621-.054-1.124 0-2.22.294-3.317.481-1.792 1.525-3.156 3.21-3.985.615-.294 1.31-.428 1.979-.482.936-.053 1.845.054 2.728.375 1.257.455 2.086 1.337 2.648 2.487.374.776.561 1.605.695 2.461.134.91.134 1.845.107 2.782v.107H79.01v.427c.026.562.133 1.097.374 1.578.428.856 1.15 1.311 2.086 1.391 1.445.134 2.675-.374 3.772-1.257.08.027.107 0 .133-.026Zm-6.258-4.681h4.038c.107 0 .107-.054.107-.134-.026-.401-.026-.776-.08-1.177-.107-.775-.588-1.578-1.631-1.711-.509-.054-1.017.026-1.445.347-.454.348-.695.83-.829 1.364-.16.455-.187.883-.16 1.31Z" fill="#2E2E2E"></path><path d="M45.924 25.71c-.535.32-1.07.614-1.605.909-.267.133-.508.294-.776.454-.08.054-.133.054-.213-.026a3.202 3.202 0 0 1-.883-1.097l-.08-.16c-.08.053-.134.107-.214.187-.696.588-1.525.91-2.434 1.043-.99.134-1.953.107-2.889-.24-.722-.268-1.364-.67-1.792-1.312-.267-.4-.401-.855-.481-1.337-.107-.669-.107-1.337-.107-2.006v-8.452c0-.16.053-.214.214-.24 1.043-.188 2.086-.402 3.129-.589h.16V21.992c0 .508.054 1.043.188 1.524.133.535.508.802 1.016.883.99.16 1.792-.241 2.407-.99.134-.134.16-.32.16-.508V13.566l3.37-.722v10.271c.027.963.242 1.819.83 2.594Z" fill="#595959"></path><path d="M87.22 26.78c.054-.054.054-.108.108-.161 1.605-2.327 3.21-4.654 4.84-6.981.081-.107.054-.16 0-.268a1842.361 1842.361 0 0 1-3.583-5.429c-.027-.054-.054-.08-.08-.134.347-.107.695-.187 1.043-.294.829-.24 1.658-.455 2.487-.695.107-.027.16 0 .214.08.776 1.284 1.525 2.621 2.14 3.985.026.027.026.054.053.107.08-.16.134-.32.187-.455.482-1.096.963-2.193 1.578-3.236.054-.107.108-.134.241-.134h4.039c-1.364 2.113-2.701 4.2-4.039 6.286 1.632 2.434 3.237 4.868 4.895 7.328H97.01c-.134 0-.187-.053-.24-.16-.803-1.445-1.606-2.889-2.381-4.333 0 0 0-.027-.027-.027a6.837 6.837 0 0 0-.294.642c-.562 1.204-1.284 2.3-1.926 3.424-.187.32-.374.428-.749.428-1.284-.027-2.567 0-3.851 0-.16.026-.241.026-.321.026ZM67.347 23.703h6.634c-.107.482-.214.937-.295 1.391-.107.508-.24 1.043-.32 1.551-.027.08-.054.134-.134.108h-9.629V8.27h3.771c-.026 5.162-.026 10.297-.026 15.432Z" fill="#2E2E2E"></path><path d="M9.71 7.04c.026 2.595-2.087 4.868-4.895 4.841C2.06 11.881-.026 9.608 0 6.987c.027-2.568 2.14-4.895 5.002-4.815 2.648.08 4.734 2.274 4.707 4.868ZM.776 17.311c-.027-2.54 2.086-4.654 4.654-4.654a4.617 4.617 0 0 1 4.627 4.654c0 2.568-2.033 4.627-4.654 4.654-2.674 0-4.654-2.193-4.627-4.654Z" fill="#595959"></path><path d="M15.032 1.076c2.54 0 4.627 2.06 4.627 4.627a4.612 4.612 0 0 1-4.627 4.627 4.612 4.612 0 0 1-4.627-4.627c0-2.434 1.952-4.6 4.627-4.627ZM24.58 8.806a4.372 4.372 0 0 1-4.386-4.387A4.37 4.37 0 0 1 24.34.006a4.393 4.393 0 0 1 4.627 4.36 4.418 4.418 0 0 1-4.387 4.44Z" fill="#2E2E2E"></path><path d="M1.471 26.966c-.027-2.3 1.845-4.386 4.386-4.36 2.354.027 4.333 1.873 4.333 4.36 0 2.541-2.086 4.36-4.36 4.36-2.38 0-4.386-1.98-4.359-4.36Z" fill="#595959"></path><path d="M19.338 15.6a4.294 4.294 0 1 1-8.586-.16 4.307 4.307 0 0 1 4.307-4.147c2.407.027 4.306 2.006 4.279 4.306Z" fill="#FD6000"></path><path d="M24.179 9.795c2.22-.027 4.199 1.792 4.199 4.226a4.218 4.218 0 0 1-4.2 4.173c-2.326 0-4.198-1.9-4.198-4.226a4.2 4.2 0 0 1 4.199-4.173Z" fill="#2E2E2E"></path><path d="M15.058 20.628c2.247-.027 4.119 1.872 4.119 4.145 0 2.14-1.712 4.12-4.146 4.12-2.327 0-4.145-1.846-4.119-4.147.054-2.433 2.006-4.145 4.146-4.118Z" fill="#595959"></path><path d="M23.83 26.726c-2.219 0-3.984-1.792-3.984-4.012 0-2.22 1.792-3.986 4.038-3.959 2.274.027 3.932 1.9 3.932 4.012 0 2.193-1.792 3.959-3.985 3.959ZM103.348 26.78V13.405l3.531-.562v13.748c0 .16-.054.187-.188.187h-3.343Z" fill="#2E2E2E"></path><path d="M107.306 9.42a2.15 2.15 0 0 1-2.193 2.194c-1.284 0-2.166-1.07-2.166-2.193 0-1.15.963-2.193 2.22-2.193 1.257 0 2.166 1.016 2.139 2.193Z" fill="#595959"></path></svg>